<svg id="visual" viewBox="0 0 900 600" width="900" height="600" xmlns="http://www.w3.org/2000/svg" xmlns:xlink="http://www.w3.org/1999/xlink" version="1.1"><rect x="0" y="0" width="900" height="600" fill="#0f1330"></rect><path d="M0 314L39 314L39 373L78 373L78 378L117 378L117 463L157 463L157 432L196 432L196 394L235 394L235 373L274 373L274 328L313 328L313 422L352 422L352 401L391 401L391 365L430 365L430 338L470 338L470 362L509 362L509 341L548 341L548 450L587 450L587 456L626 456L626 434L665 434L665 366L704 366L704 395L743 395L743 426L783 426L783 444L822 444L822 365L861 365L861 336L900 336L900 438L900 601L900 601L861 601L861 601L822 601L822 601L783 601L783 601L743 601L743 601L704 601L704 601L665 601L665 601L626 601L626 601L587 601L587 601L548 601L548 601L509 601L509 601L470 601L470 601L430 601L430 601L391 601L391 601L352 601L352 601L313 601L313 601L274 601L274 601L235 601L235 601L196 601L196 601L157 601L157 601L117 601L117 601L78 601L78 601L39 601L39 601L0 601Z" fill="#070e3e"></path></svg>